<svg xmlns="http://www.w3.org/2000/svg" viewBox="0 0 120 120" fill="none">
  <defs>
    <linearGradient id="mm-badge" x1="0" y1="0" x2="0" y2="1">
      <stop offset="0" stop-color="#18a8f5"/>
      <stop offset="1" stop-color="#0b67c2"/>
    </linearGradient>
  </defs>
  <path d="M60 6 108 30 108 74 60 114 12 74 12 30Z" fill="#061423"/>
  <path d="M60 6 108 30 108 74 60 114 12 74 12 30Z" fill="none" stroke="url(#mm-badge)" stroke-width="4"/>
  <path d="M60 14 100 34 100 71 60 104 20 71 20 34Z" fill="none" stroke="#f59e0b" stroke-width="2.4"/>
  <g stroke="#18a8f5" stroke-width="4.4" stroke-linecap="round" stroke-linejoin="round" fill="none">
    <path d="M34 66 C40 52 52 46 66 46 C78 46 86 52 90 60"/>
    <path d="M34 66 L88 66"/>
    <circle cx="48" cy="66" r="7" fill="#061423"/>
    <circle cx="78" cy="66" r="7" fill="#061423"/>
  </g>
  <path d="M64 46 L84 44" stroke="#f59e0b" stroke-width="4.4" stroke-linecap="round"/>
</svg>
